<?xml version="1.0" encoding="utf-8"?>
<!-- Uploaded to: SVG Repo, www.svgrepo.com, Generator: SVG Repo Mixer Tools -->
<svg width="800px" height="800px" viewBox="0 -11.35 396.537 396.537" xmlns="http://www.w3.org/2000/svg"><defs><style>.a{fill:#ffffff;}.b{fill:#79acd9;}.c{fill:#3f88c9;}.d{fill:#6dbf6b;}.e{fill:#211715;}</style></defs><path class="a" d="M299.124,197.115q.142.534.279,1.069c1.062,4.159,1.732,9.048-.513,12.52l7.608,3.414a21.749,21.749,0,0,1-3,40.235,31.635,31.635,0,0,1,28.6,17.919c1.581,3.418,2.534,7.279,1.761,10.965-1.255,5.985-6.874,10.275-12.793,11.807a24.708,24.708,0,0,1-10.879.3l1.769,6.349a45.624,45.624,0,0,1,1.83,22.59,9.177,9.177,0,0,1-2.207,5.186c-1.661,1.606-4.179,1.884-6.49,1.855a37.208,37.208,0,0,1-23.882-9.274,35.374,35.374,0,0,1-20.083,7.841l-5.71.687c2.282,7.349,3.063,15.157-.8,16.861-12.208,5.393-33.912,3.21-40.944-9.958,0,0-.088-.163-.237-.455-.688,4.022-2.809,7.819-5.221,11.182-2.348,3.274-14.745,13.185-29.146,13.838-5.562.252-11.641.145-14.509-5.479a28.057,28.057,0,0,1-2.321-6.371c-3.81,1.832-8,3.842-8,3.842-4.117,2.557-11.071,2.247-14.938.476l-8.512-3.127a30.185,30.185,0,0,1-5.312,7.729c-5.465,5.745-20.072,14.039-26.489,10.615-5.166-2.755-6.1-15.895-6.119-21.749a29.84,29.84,0,0,1,2.018-11.461l-6.053-4.484c-4.923,5.787-12.471,8.853-20.016,9.744a75.27,75.27,0,0,1-22.121-1A6.766,6.766,0,0,1,43.183,339a4.486,4.486,0,0,1-.721-2.652A54.141,54.141,0,0,1,49.9,306.413c.34-.574.7-1.148,1.077-1.71a35.163,35.163,0,0,1-6.657-20.488l.525-10.4a13.8,13.8,0,0,1-4.175-1.443c-5.789-3.188-7.869-10.55-7.893-17.159-.042-11.472,5.175-23.52,15.247-29.014l3.532-2.7c-6.254-1.218-11.809-3.409-14.048-5.437-6.235-5.648-14.675-17.319-14.227-21.125.752-6.384,10.817-11.237,16.985-13.047,14.3-4.195,31.121,4.148,36.435,18.067l2.135,2.528a25.009,25.009,0,0,1,8-15.75c10.8-10.21,32.794-12.417,35.061-9.786,1.887,2.19,3,5.974,3.4,10.075l6.2-5.388a25.021,25.021,0,0,1,11.659-7.058l12.035-5.913A29.982,29.982,0,0,1,134.6,163.1c-5.575-5-13.719-22.128-10.727-28.379,2.821-5.9,21.008-8.189,26.533-6.733s9.786,2.864,12.417,7.2l7.864,5.9a26.7,26.7,0,0,1,3.53-6.753c4.679-6.465,26.833-14.086,32.4-7.572,1.151,1.346,1.645,7.139,1.5,13.457l9.529.752a20.257,20.257,0,0,1,16.4,10.842l4.776-6.759c1.923-7.394,4.532-13.185,11.143-17.492,5.043-3.286,9.12-5.92,17-4.471,4.834.888,7.856,9.768,8.9,14.569,2.111,9.659,1.086,14.153-2.861,22.054a33.437,33.437,0,0,1-5.253,7.71l3.118.614c7.491-.263,14.628,3.985,19.345,9.811C294.709,183.389,297.286,190.214,299.124,197.115Z"/><path class="b" d="M99.953,320.1a30.021,30.021,0,0,1-16.6-7.393c-5.575-5-13.718-22.128-10.727-28.379,2.822-5.895,21.008-8.189,26.533-6.733,3.494.92,6.482,1.822,8.872,3.456,3.791,1.628,7.093,2.764,10.194,5.079-.253-7.293,2.513-15.716,9.429-17.957,5.783-1.875,11.865,1.34,17.094,4.441,3.793,3.147,7.354,6.385,11.146,9.53a10.654,10.654,0,0,0-3.492,6.222c-.2,1.661,1.109,4.94,3.284,8.5a18.952,18.952,0,0,1-.879,1.736c-2.333,4.029-6.564,7.041-3.357,13.839a41.7,41.7,0,0,1,19.641,10.07,28.158,28.158,0,0,0-8.861,27.632c-1.357.763-2.8,1.41-4.217,2.036l-3.042,1.345c-3.975,3.1-11.568,2.59-15.674.71a27.255,27.255,0,0,1-7.117-3.422l-.888-.539a30.16,30.16,0,0,1-5.812,8.836c-5.465,5.745-20.072,14.039-26.489,10.615-5.166-2.755-6.1-15.895-6.119-21.749-.037-10.348,3.886-17.055,10.3-22.207a13.947,13.947,0,0,0,.773-5.5A28.875,28.875,0,0,1,99.953,320.1Z"/><path class="c" d="M239.483,299.87c-2.936,2.8-5.854,4.4-7.521,3.353,4.939,2.119,14.168,9.8,18.291,15.858,4.74,6.967,10.592,25.6,4.366,28.354-12.208,5.393-33.912,3.21-40.944-9.958,0,0-.088-.163-.237-.455-.688,4.022-2.809,7.819-5.221,11.182-2.348,3.274-14.745,13.185-29.146,13.838-5.562.252-11.641.145-14.509-5.479a28.229,28.229,0,0,1,6.7-34.195,76.437,76.437,0,0,0,8.053-6.852c.412-.384.823-.769,1.238-1.152a38.725,38.725,0,0,1-14.641-5.94c-7.262-5.18-13.933-16.443-13.507-20.056.715-6.062,9.015-11.2,16.126-12.387,9.141-1.531,20.216-.253,28.185,5.8a16.071,16.071,0,0,1,4.845,3.708l3.873,4.206a23.373,23.373,0,0,1,4.908-14.746c9.025-10.85,21.014-16.695,28.056-14.2,7.888,2.792,12.493,19.546,9.13,27.658A36.67,36.67,0,0,1,239.483,299.87Z"/><path class="c" d="M281.563,215.708c-8,.282-18.072-.994-23.715-6.685a56.85,56.85,0,0,1-5.607-6.519c4.765,4.551-8.583,15.219-14.652,18.18-4.785,2.336-22.838,7.568-28.561,2.207-1.273-1.191-1.912-5.641-2.067-6.672a62.147,62.147,0,0,1-1.3-6.862,21.206,21.206,0,0,0,3.445-1.58c2.759-1.577,5.343-4.071,5.615-7.238a11.033,11.033,0,0,0-.172-2.651,42.483,42.483,0,0,0-15.248-26.281s-2.44-1.955-5.813-4.652c4.89-1.044,9.23-4.646,11.826-9.03,1.706-2.879,2.655-10.637,2.808-17.728a78.766,78.766,0,0,1,9.519.774,20.226,20.226,0,0,1,16.362,10.785,53.008,53.008,0,0,1,5-7.4c1.907-7.063,4.557-12.627,10.959-16.8,5.043-3.286,9.12-5.92,17-4.471,4.834.888,7.856,9.768,8.9,14.569,2.111,9.659,1.086,14.153-2.861,22.054a32.349,32.349,0,0,1-6.556,9.029c9.026-2.571,18.126,2.14,23.766,9.106,4.717,5.826,7.323,13.072,9.179,20.335,1.185,4.642,1.882,10.191-1.415,13.667-2.033,2.144-7.237,2.852-10.158,3.292A55.993,55.993,0,0,1,281.563,215.708Z"/><path class="d" d="M144.081,120.594a18.161,18.161,0,0,1,4.8,7.119c-6.762-.8-22.408,1.575-25.008,7.007-2.992,6.251,5.152,23.38,10.727,28.379,3.106,2.786,16.611,6.3,20.585,7.564a78.478,78.478,0,0,1-11.751,5.84c-5.154,1.3-14.717,9.134-18.078,13.233-.3-3.473-1.38-9.5-3.737-11.027-3.379-2.244-24.326.138-34.786,10.024a25.449,25.449,0,0,0-7.791,14.1l-.611,3.661L76.7,201.955c-5.314-13.919-22.138-22.262-36.435-18.067a42.588,42.588,0,0,0-8.221,3.424q-1.693-4.311-3.192-8.7l.143.33a107,107,0,0,1-3.967-13.911,70.105,70.105,0,0,1-1.705-11.884,50.409,50.409,0,0,1,4.934-23.675c2.694-5.662,6.367-10.815,9.079-16.469s6.233-15.548,4.692-21.627L41.552,89.5l1.423,1.877c3.293,4.344,8.37,7.06,13.63,8.491s10.756,1.695,16.2,1.95l27.37,1.284a97.311,97.311,0,0,1,15.572,1.57c5.949,1.021,12.763,4.659,18.029,7.609a67.236,67.236,0,0,1,9.98,7.963"/><path class="b" d="M130.428,205.605a40.275,40.275,0,0,0,5.65,1.066c5.281.687,10.691,1.134,15.894,0s15.943-5.845,18.511-10.51l.419-.762a35.673,35.673,0,0,0,16.632,13.66c6.969,2.611,15.116,2.409,21.577-1.283,2.759-1.577,5.343-4.071,5.615-7.238a11.033,11.033,0,0,0-.172-2.651A42.4,42.4,0,0,0,198.7,171.142a12.2,12.2,0,0,0-5.282-4.171c4.921-1.022,9.293-4.639,11.9-9.046,3.224-5.442,3.743-28.308,1.3-31.163-5.571-6.514-27.725,1.107-32.4,7.572a27.778,27.778,0,0,0-4.92,19.776,20.735,20.735,0,0,0-8.494-21.441c-2.593-2.454-6.116-3.554-10.4-4.682-5.525-1.456-23.712.838-26.533,6.733-2.992,6.251,5.152,23.38,10.727,28.379a29.812,29.812,0,0,0,22.991,7.382c-10.717,2.608-18.346,5.889-26.1,13.781,0,0-10.705,5.773-11.293,9.64S130.428,205.605,130.428,205.605Z"/><path class="c" d="M68.694,190.682c-7.654-6.657-18.635-9.668-28.43-6.794-6.168,1.81-16.233,6.663-16.985,13.047-.448,3.806,7.992,15.477,14.227,21.125,2.525,2.287,9.268,4.782,16.474,5.855-13.966,3.39-21.254,17.746-21.2,31.3.024,6.609,2.1,13.971,7.893,17.159a17.69,17.69,0,0,0,9.013,1.785,34.232,34.232,0,0,0,33.337-35.025,23.013,23.013,0,0,0,5.2,4.011c2.17,6.763,6.2,13.541,12.609,16.563,7.365,3.469,23.557,2.342,30.115-.555s-1.6-25.221-4.6-29.865c-4.179-6.463-9.563-11.3-14.777-13.564,4.365-3.122,8.5-6.575,11.293-11.1,3.653-5.916,3.575-20.4-.964-25.671-2.267-2.631-24.258-.424-35.061,9.786a25.452,25.452,0,0,0-7.795,14.119l-.6,3.646L76.7,201.955A28.5,28.5,0,0,0,68.694,190.682Z"/><path class="e" d="M108.736,220.587c7.54-5.117,16.3-11.013,18.345-20.511a36.518,36.518,0,0,0,.474-12.252c-.452-3.531-1.323-7.948-3.965-10.574-1.562-1.553-4.132-1.679-6.2-1.716a46.639,46.639,0,0,0-9.88,1.057c-7.843,1.566-15.908,4.615-21.924,10.03-8.32,7.488-11.855,19.524-6.758,29.817a2.424,2.424,0,0,0,3.283.861,2.449,2.449,0,0,0,.861-3.284c-3.776-7.626-1.2-16.513,4.443-22.471,4.912-5.192,11.89-8.038,18.71-9.729a46.588,46.588,0,0,1,8.956-1.429,26.786,26.786,0,0,1,3.55,0c.228.018.456.043.683.067-.519-.055-.146-.027.123.031.177.038.352.081.529.12.26.057.774.368.08-.018a2.382,2.382,0,0,1,.335.177c.159.123.313.057-.288-.228.016.008.1.107.1.106a5.288,5.288,0,0,1,.325.452c.2.318.39.637.563.97a17,17,0,0,1,1.388,4.239,31.764,31.764,0,0,1,.324,10.564,17.057,17.057,0,0,1-4.427,9.792c-3.447,3.916-7.768,6.872-12.056,9.782-2.542,1.725-.143,5.885,2.423,4.144Z"/><path class="e" d="M79.013,201.317a33.326,33.326,0,0,0-42.44-18.706A35.873,35.873,0,0,0,25.3,189.1c-2.684,2.413-5.029,5.956-4.241,9.713.706,3.363,2.929,6.576,4.854,9.347a74.213,74.213,0,0,0,8.355,10.125c3.186,3.19,7.048,4.919,11.333,6.215a52.106,52.106,0,0,0,16.969,2.32c3.078-.122,3.094-4.923,0-4.8a47.012,47.012,0,0,1-13.475-1.531c-3.308-.845-6.963-1.886-9.733-3.979.353.267-.268-.247-.374-.343-.3-.272-.59-.552-.879-.834-.7-.682-1.377-1.387-2.04-2.106q-2.028-2.2-3.868-4.567a48.583,48.583,0,0,1-5.776-9,8.378,8.378,0,0,1-.538-1.375c-.077-.247-.133-.5-.2-.748-.112-.423,0,.047,0,.131-.012-.153-.018-.3-.026-.457,0-.1.028-.4-.032.1a4.644,4.644,0,0,1,.105-.525,6.083,6.083,0,0,1,.33-1.027,11.455,11.455,0,0,1,1.015-1.6c2.26-2.827,5.7-4.686,8.941-6.154a28.241,28.241,0,0,1,20.659-1.4c7.754,2.484,14.715,8.307,17.705,15.988a2.47,2.47,0,0,0,2.952,1.676,2.417,2.417,0,0,0,1.676-2.952Z"/><path class="e" d="M46.81,224.127c-6.926,3.845-11.72,10.491-14.275,17.89-2.46,7.127-3.185,15.681-.6,22.88a17.634,17.634,0,0,0,6.784,9.1c3.78,2.45,8.586,2.825,12.964,2.444A36.614,36.614,0,0,0,85.418,239.11c-.055-3.085-4.856-3.1-4.8,0a31.787,31.787,0,0,1-25.811,32.076,22.734,22.734,0,0,1-11.183-.143,11.081,11.081,0,0,1-6.5-6.07c-2.809-5.806-2.352-13.172-.712-19.234,1.948-7.2,6.2-13.792,12.821-17.467,2.7-1.5.283-5.647-2.423-4.145Z"/><path class="e" d="M110.353,217.794a31.926,31.926,0,0,1,15.13,14.96,60.189,60.189,0,0,1,2.777,7.071,63.81,63.81,0,0,1,2.317,8.8,23.046,23.046,0,0,1,.433,3.771c.022.6.023,1.193-.014,1.789-.015.241-.035.483-.063.723.068-.58-.07.335-.111.5-.055.232-.135.456-.2.686-.1.36.245-.334-.082.193-.11.177-.208.358-.325.532.278-.416.1-.127-.116.071-.3.267.1-.079.142-.1a1.663,1.663,0,0,1-.25.155c-.5.16.095-.011-.309.147-.655.255-1.325.474-2,.668a46.052,46.052,0,0,1-9.941,1.578A48.6,48.6,0,0,1,107.1,259a16.62,16.62,0,0,1-10.009-4.907,29.438,29.438,0,0,1-6.633-11.809c-.937-2.931-5.573-1.678-4.628,1.276,2.685,8.4,7.984,16.879,16.948,19.409a41.988,41.988,0,0,0,11.67,1.29,60.563,60.563,0,0,0,12.187-1.286c2.772-.6,6.088-1.289,7.773-3.787,1.455-2.158,1.538-5.117,1.355-7.621-.477-6.5-2.585-12.954-5.111-18.927-3.373-7.977-9.876-15.438-17.876-18.984a2.476,2.476,0,0,0-3.284.861,2.419,2.419,0,0,0,.861,3.284Z"/><path class="e" d="M189.87,169.638c8.9.393,17.305-6.727,19.19-15.259a74.24,74.24,0,0,0,1.266-22.023c-.211-2.436-.366-5.529-2.13-7.428-2.224-2.4-5.778-3.03-8.9-3.051a37.62,37.62,0,0,0-11.443,1.963,45,45,0,0,0-10.691,4.823,19.268,19.268,0,0,0-4.142,3.352,25.366,25.366,0,0,0-4.242,7.347,30.248,30.248,0,0,0-1.225,18.383c.738,3,5.368,1.729,4.629-1.276a25.538,25.538,0,0,1,.6-14.118,24.89,24.89,0,0,1,3.159-6.308c.054-.078.546-.757.268-.393-.239.312.128-.152.147-.172.172-.186.34-.376.519-.556.217-.217.443-.425.674-.627.136-.118.274-.233.413-.348.326-.27-.076.05.136-.111a38.824,38.824,0,0,1,18.414-7.016,22.2,22.2,0,0,1,4.631-.044c.494.053.161.022.056.006.15.023.3.047.449.077.322.066.643.136.96.226a9.015,9.015,0,0,1,.89.3c-.484-.193.343.186.49.274.11.065.213.137.322.2.507.31-.233-.224.033.019.193.177.379.424.583.581-.212-.163-.384-.466-.123-.1.31.432-.113-.487.03.078.113.445.254.877.347,1.328.048.237.091.474.13.713.021.127.04.254.06.381.089.558-.039-.361.023.173a67.225,67.225,0,0,1,.333,9.326q-.062,2.7-.275,5.388c-.129,1.625-.3,3.247-.507,4.587a33.729,33.729,0,0,1-.987,4.633c-.091.3-.2.594-.3.892-.2.618.153-.209-.14.346A16.739,16.739,0,0,1,202,158.579c-2.9,3.763-7.285,6.473-12.131,6.259-3.089-.137-3.082,4.663,0,4.8Z"/><path class="e" d="M164.894,133.973c-2.2-3.52-5.511-5.609-9.363-6.97a28.4,28.4,0,0,0-9.01-1.836,45.414,45.414,0,0,0-19.013,3.6c-2.277,1.022-4.694,2.563-5.784,4.9-1.306,2.8-.962,6.074-.357,9.009a48.749,48.749,0,0,0,8.619,18.763c5.78,7.706,15.682,11.8,25.2,11.616,3.085-.061,3.095-4.861,0-4.8-7.326.143-15.336-2.629-20.25-8.261a38.08,38.08,0,0,1-4.488-6.863,49.02,49.02,0,0,1-3.673-8.722,17.914,17.914,0,0,1-1.08-7.5c.041-.381-.071.371,0,.008.027-.134.051-.267.083-.4.054-.222.124-.437.192-.655.121-.389-.2.245.09-.172.084-.119.564-.756.186-.322a8.3,8.3,0,0,1,.983-.956c-.372.307.294-.2.382-.258.254-.169.516-.327.782-.477,4.43-2.518,10.518-3.451,15.73-3.684a32.228,32.228,0,0,1,4.064.04c.139.011,1.074.127.433.032.23.034.459.071.686.118.847.174,1.684.43,2.514.669,3.489,1,6.92,2.325,8.926,5.531,1.635,2.613,5.79.207,4.145-2.422Z"/><path class="e" d="M241.137,145.692c1.5-5.729,3.716-11.223,8.515-14.981,4.526-3.544,9.687-6.207,15.564-5.484a8.128,8.128,0,0,1,1.816.366c-.3-.112.232.121.319.173a2.782,2.782,0,0,1,.563.382A9.7,9.7,0,0,1,270,128.724a29.588,29.588,0,0,1,3.01,7.362c1.553,5.55,2.234,11.319.354,16.852-2.3,6.76-6.479,13.916-13.058,17.213-2.763,1.384-.335,5.526,2.422,4.145,7.15-3.583,11.524-10.833,14.47-17.982a27.139,27.139,0,0,0,2.138-9.39,40,40,0,0,0-1.345-10.767,38.334,38.334,0,0,0-3.223-8.747c-1.387-2.637-3.352-5.272-6.23-6.359a16.647,16.647,0,0,0-5.534-.765,19.545,19.545,0,0,0-5.152.626,30.393,30.393,0,0,0-8.662,4.295,26.7,26.7,0,0,0-8.361,8.3,39.722,39.722,0,0,0-4.318,10.91c-.786,2.991,3.843,4.266,4.628,1.276Z"/><path class="e" d="M270.879,170.438c7.6-.187,14.451,4.461,18.7,10.517a44.46,44.46,0,0,1,5.473,11,47.9,47.9,0,0,1,2.86,11.249c.259,3-.123,6.528-3.026,7.862a19.423,19.423,0,0,1-4.5,1.241c-.741.139-1.485.259-2.23.373-.323.049-.646.1-.969.145-.478.071-.321.05-.635.089a47.894,47.894,0,0,1-18.214-.908,19.5,19.5,0,0,1-8.8-4.683,48.512,48.512,0,0,1-8.533-11.256c-1.473-2.717-5.618-.3-4.144,2.422a53.37,53.37,0,0,0,8.52,11.445,23.836,23.836,0,0,0,9.288,5.946c6.618,2.4,14.127,2.679,21.073,1.927A40.378,40.378,0,0,0,296,215.774a9.836,9.836,0,0,0,4.649-3.405,12.06,12.06,0,0,0,2.069-6c.422-4.227-.836-8.579-2.034-12.587a57.028,57.028,0,0,0-5.438-12.9c-5.1-8.56-14-15.5-24.362-15.242-3.084.076-3.1,4.877,0,4.8Z"/><path class="e" d="M236.12,150.6a22.782,22.782,0,0,0-18.474-12.03,2.421,2.421,0,0,0-2.4,2.4,2.446,2.446,0,0,0,2.4,2.4c.2.015.406.031.609.051.135.014.553.067.212.019.4.057.8.13,1.2.215a19.806,19.806,0,0,1,2.352.655q.288.1.574.209c.057.022.544.214.219.079.376.156.745.334,1.109.517a20.6,20.6,0,0,1,2.115,1.225q.511.337,1,.7c-.2-.151.017.012.093.075.19.155.378.31.563.47a20.518,20.518,0,0,1,1.665,1.619c.275.3.539.61.8.925.143.173-.076-.118.149.189.12.165.239.33.355.5a19.666,19.666,0,0,1,1.314,2.2,2.4,2.4,0,0,0,4.145-2.423Z"/><path class="e" d="M189.458,228.1c.047.265.084.533.132.8.026.175.024.152,0-.066.019.153.038.305.055.458.051.459.09.92.119,1.38a27.545,27.545,0,0,1,.02,3q-.034.693-.1,1.382c-.015.153-.031.306-.049.459-.032.259-.037.306-.014.139s.017-.12-.02.139q-.035.228-.072.456a28.382,28.382,0,0,1-.652,2.928,2.4,2.4,0,1,0,4.629,1.276,30.828,30.828,0,0,0,.587-13.624,2.411,2.411,0,0,0-2.952-1.676,2.467,2.467,0,0,0-1.677,2.952Z"/><path class="e" d="M148.352,224.6a31.623,31.623,0,0,0,3.814,20.422c1.543,2.675,5.692.26,4.144-2.423a26.326,26.326,0,0,1-3.329-16.723,2.481,2.481,0,0,0-1.676-2.953,2.42,2.42,0,0,0-2.953,1.677Z"/><path class="e" d="M167.125,249.516a24.016,24.016,0,0,0-25.707-4.4,2.414,2.414,0,0,0-.861,3.284,2.463,2.463,0,0,0,3.283.861,19.048,19.048,0,0,1,19.891,3.651c2.254,2.109,5.656-1.278,3.394-3.394Z"/><path class="e" d="M153.035,351.962c-.252.152-.507.3-.771.429-.119.059-.241.111-.36.171-.249.127.35-.122-.08.031a16.152,16.152,0,0,1-1.691.516c-.312.075-.626.139-.942.195-.142.025-.284.045-.426.069.485-.083-.014,0-.116.011q-.979.105-1.966.111c-.616,0-1.233-.018-1.847-.067-.178-.014-.356-.031-.534-.05-.05,0-.5-.057-.208-.021s-.15-.024-.2-.032q-.255-.041-.51-.087c-.555-.1-1.105-.231-1.647-.388-.271-.079-.54-.164-.806-.258-.141-.05-.28-.113-.423-.158-.321-.1.525.234.012,0a2.461,2.461,0,0,0-3.283.861,2.428,2.428,0,0,0,.861,3.284,20.589,20.589,0,0,0,8.586,1.712,17.232,17.232,0,0,0,8.775-2.189,2.4,2.4,0,1,0-2.423-4.144Z"/><path class="e" d="M148.5,304.263a29.135,29.135,0,0,1-1.877,3.136q-.254.368-.518.727a4.419,4.419,0,0,1-.267.357c.37-.408.071-.092-.008.008q-.584.734-1.212,1.428a28.722,28.722,0,0,1-2.553,2.491q-.338.291-.684.572a2.831,2.831,0,0,1-.42.333c.253-.124.231-.177-.011,0q-.751.559-1.539,1.068a2.4,2.4,0,1,0,2.423,4.145,31.532,31.532,0,0,0,10.811-11.845,2.4,2.4,0,1,0-4.145-2.423Z"/><path class="e" d="M156.59,311.5a23.727,23.727,0,0,0-12.922-.014,2.4,2.4,0,0,0,1.276,4.628,22.628,22.628,0,0,1,2.724-.59c-.566.087.327-.034.427-.043q.319-.031.641-.052.7-.045,1.394-.044c.465,0,.93.016,1.394.048q.321.021.641.053c.143.013.285.029.427.046l.106.013q-.266-.035.106.019c.141.023.282.047.423.073.211.038.422.079.631.124.49.105.975.23,1.456.367a2.4,2.4,0,1,0,1.276-4.628Z"/><path class="e" d="M172.1,164.716c-2.871,0-5.977,2.163-5.977,5.093a5.8,5.8,0,0,0,5.546,5.343c4.935,0,6.408-1.4,6.408-5.667C178.072,166.254,174.75,164.716,172.1,164.716Z"/><path class="e" d="M81.836,222.24c-2.871,0-5.977,2.163-5.977,5.093a5.8,5.8,0,0,0,5.545,5.343c4.935,0,6.409-1.4,6.409-5.667C87.813,223.777,84.491,222.24,81.836,222.24Z"/><path class="e" d="M127.021,316.2c-2.871,0-5.977,2.163-5.977,5.093a5.8,5.8,0,0,0,5.545,5.343c4.935,0,6.409-1.4,6.409-5.667C133,317.742,129.676,316.2,127.021,316.2Z"/><path class="e" d="M186.317,251.183c-2.871,0-5.977,2.163-5.977,5.093a5.8,5.8,0,0,0,5.545,5.343c4.935,0,6.409-1.4,6.409-5.667C192.294,252.721,188.972,251.183,186.317,251.183Z"/><path class="e" d="M281.853,247.479c-2.872,0-5.978,2.163-5.978,5.093a5.8,5.8,0,0,0,5.546,5.343c4.935,0,6.409-1.4,6.409-5.667C287.83,249.017,284.507,247.479,281.853,247.479Z"/><path class="e" d="M243.989,173.964c-2.872,0-5.977,2.163-5.977,5.093a5.8,5.8,0,0,0,5.545,5.343c4.935,0,6.409-1.4,6.409-5.667C249.966,175.5,246.643,173.964,243.989,173.964Z"/><path class="e" d="M305.287,216.19A20.187,20.187,0,0,1,315.929,230.4a19.008,19.008,0,0,1-4.8,16.177,19.445,19.445,0,0,1-8.276,5.466c-2.5.821-2.167,4.747.638,4.714A29.227,29.227,0,0,1,321.3,262.7c5.049,3.783,9.591,9.822,10.348,16.238.789,6.682-4.331,11.7-10.352,13.543a22.443,22.443,0,0,1-28.887-22.524c.1-3.09-4.7-3.086-4.8,0a27.247,27.247,0,0,0,32.537,27.746c7.315-1.373,14.9-6.688,16.143-14.471,1.31-8.23-3.525-16.638-9.395-22.073a34.189,34.189,0,0,0-23.4-9.209l.638,4.714A25.025,25.025,0,0,0,319.552,241.8a23.78,23.78,0,0,0-2.476-21.218,24.316,24.316,0,0,0-9.367-8.532c-2.751-1.387-5.184,2.753-2.422,4.145Z"/><path class="e" d="M266.332,258.981a18.275,18.275,0,0,0-12.6,10.922,2.4,2.4,0,0,0,.242,1.85,2.4,2.4,0,0,0,3.284.861,2.852,2.852,0,0,0,1.1-1.435c-.276.656.115-.223.194-.38q.2-.4.42-.782a17.264,17.264,0,0,1,.972-1.483c.328-.455-.341.407.019-.025.086-.1.17-.208.257-.311q.286-.339.592-.661a15.971,15.971,0,0,1,1.29-1.219c.1-.087.209-.17.312-.257.225-.193-.4.288-.04.028.261-.19.523-.379.792-.557a15.625,15.625,0,0,1,1.534-.892c.239-.123.484-.234.727-.348.51-.238-.5.19.021-.009.126-.047.251-.1.377-.143a15.555,15.555,0,0,1,1.777-.53,2.422,2.422,0,0,0,1.677-2.953,2.452,2.452,0,0,0-2.953-1.676Z"/><path class="e" d="M277.376,220.819a16.723,16.723,0,0,0-6.816,16.913l4.629-1.276a22.722,22.722,0,0,0-14.448-14.448,2.4,2.4,0,0,0-1.276,4.628,17.808,17.808,0,0,1,11.1,11.1,2.4,2.4,0,0,0,4.629-1.276,11.672,11.672,0,0,1,.721-6.539,11.952,11.952,0,0,1,3.888-4.954,2.463,2.463,0,0,0,.861-3.283,2.419,2.419,0,0,0-3.283-.861Z"/><path class="e" d="M226.861,240.517a18.839,18.839,0,0,1,.594,2.469c.09.506-.038-.475.01.082.016.181.037.361.051.542q.048.634.047,1.27,0,.591-.047,1.18c-.016.211-.039.421-.061.632-.064.615.1-.526-.014.082a18.83,18.83,0,0,1-.608,2.465,2.419,2.419,0,0,0,1.676,2.952,2.454,2.454,0,0,0,2.952-1.676,18.41,18.41,0,0,0,.028-11.274,2.4,2.4,0,1,0-4.628,1.276Z"/><path class="e" d="M132.566,114.357q1.3.845,2.553,1.748.629.453,1.246.922c.121.091.244.182.363.276-.142-.113-.271-.21-.053-.039s.43.339.644.51q2.465,1.977,4.741,4.171a2.4,2.4,0,0,0,3.394-3.394,71.464,71.464,0,0,0-10.465-8.338,2.42,2.42,0,0,0-3.284.861,2.454,2.454,0,0,0,.861,3.283Z"/><path class="e" d="M41.278,93.078c5.917,7.633,15.836,10.006,24.988,10.76,10.52.867,21.127,1.068,31.671,1.563,5.743.269,11.524.427,17.173,1.589a2.458,2.458,0,0,0,2.952-1.676,2.423,2.423,0,0,0-1.676-2.952,97.336,97.336,0,0,0-15.024-1.6q-7.808-.375-15.617-.733c-5.17-.242-10.341-.46-15.509-.732a57.548,57.548,0,0,1-14.144-2.074,22.639,22.639,0,0,1-11.42-7.539,2.413,2.413,0,0,0-3.394,0,2.462,2.462,0,0,0,0,3.394Z"/><path class="e" d="M39.713,92.019c1.069,4.489-.583,9.764-2.092,14.054a86.252,86.252,0,0,1-7.487,14.944,67.258,67.258,0,0,0-7.586,17.164A51.7,51.7,0,0,0,21.29,157.46a102.392,102.392,0,0,0,5.39,22.125,2.463,2.463,0,0,0,2.952,1.676,2.42,2.42,0,0,0,1.676-2.952c-4.4-12.159-7.421-25.611-4.242-38.413,1.509-6.079,4.287-11.486,7.445-16.852A90.571,90.571,0,0,0,42.125,107.7c1.885-5.264,3.547-11.371,2.217-16.957-.716-3-5.345-1.732-4.629,1.276Z"/><path class="e" d="M261.125,332.287a38.162,38.162,0,0,0,19.6-6.87,2.467,2.467,0,0,0,.861-3.283,2.42,2.42,0,0,0-3.284-.861,33.6,33.6,0,0,1-17.175,6.214,2.456,2.456,0,0,0-2.4,2.4,2.421,2.421,0,0,0,2.4,2.4Z"/><path class="e" d="M276.017,320.2a39.4,39.4,0,0,0,22.946,12.937c4.248.718,9.793,1.449,13.488-1.3,3.933-2.925,4.186-9.007,4.36-13.476a48.15,48.15,0,0,0-2.54-17.31c-.99-2.908-5.628-1.66-4.629,1.276a43.856,43.856,0,0,1,2.061,19.821c-.218,1.685-.407,3.83-1.469,5.237-.989,1.31-2.849,1.5-4.367,1.532a29.551,29.551,0,0,1-5.628-.411,34.963,34.963,0,0,1-20.828-11.7c-2.024-2.34-5.407,1.067-3.394,3.394Z"/><path class="e" d="M47.9,116.172l38.345,37.421c2.212,2.159,5.61-1.232,3.394-3.394L51.3,112.778c-2.212-2.159-5.609,1.232-3.394,3.394Z"/><path class="e" d="M94.783,165.38q1,1.191,1.949,2.422l-.375-.486q1.775,2.3,3.373,4.733a2.545,2.545,0,0,0,1.435,1.1,2.4,2.4,0,0,0,2.71-3.526,82.811,82.811,0,0,0-5.7-7.641,2.415,2.415,0,0,0-1.7-.7,2.442,2.442,0,0,0-1.7.7,2.415,2.415,0,0,0-.7,1.7,2.708,2.708,0,0,0,.7,1.7Z"/><path class="e" d="M73.386,133.338a77.221,77.221,0,0,1-.483-21.05,2.417,2.417,0,0,0-2.4-2.4,2.452,2.452,0,0,0-2.4,2.4,81.663,81.663,0,0,0,.655,22.326,2.42,2.42,0,0,0,2.952,1.676,2.454,2.454,0,0,0,1.676-2.952Z"/><path class="e" d="M65.586,148.621l.037-.05a2.408,2.408,0,0,0-.375-2.909,2.519,2.519,0,0,0-3.79.221,2.606,2.606,0,0,0,.936,3.836c.753.414,1.6.707,2.387,1.062s1.584.725,2.372,1.1q4.728,2.226,9.324,4.717A2.4,2.4,0,1,0,78.9,152.45q-3.508-1.9-7.092-3.649-1.731-.843-3.479-1.65-.873-.4-1.752-.8-.5-.225-1-.447l-.5-.222q-.5-.26-.006.087l.617,1.059-.023-.131-.617,2.335.061-.055-2.335.617.09.021L61.8,149l.057.056-.375-2.908-.038.05a2.408,2.408,0,0,0,.861,3.284,2.472,2.472,0,0,0,3.284-.861Z"/><path class="e" d="M98.456,148.606a66.012,66.012,0,0,0,1.785,12.47,2.424,2.424,0,0,0,2.953,1.677,2.451,2.451,0,0,0,1.676-2.953c-.462-1.9-.84-3.823-1.122-5.761-.017-.113-.033-.227-.049-.341.029.219.032.242.009.067-.034-.266-.068-.533-.1-.8q-.079-.685-.145-1.374-.139-1.489-.208-2.985a2.4,2.4,0,1,0-4.8,0Z"/><path class="e" d="M122.666,103.616a24.181,24.181,0,0,0-1.974,6.2,2.605,2.605,0,0,0,.242,1.849,2.4,2.4,0,0,0,3.284.861,2.337,2.337,0,0,0,1.1-1.434,22.032,22.032,0,0,1,1.4-4.866l-.242.574c.108-.255.219-.507.335-.758a2.586,2.586,0,0,0,.242-1.849,2.4,2.4,0,0,0-2.952-1.676,2.343,2.343,0,0,0-1.434,1.1Z"/><path class="e" d="M57.977,296.052c-6.326,1.913-9.993,8.186-12.611,13.827a57.572,57.572,0,0,0-5.236,20.305q-.167,2.418-.114,4.843c.04,1.776.053,3.664,1.095,5.184,1.942,2.837,6,3.093,9.07,3.516a68.231,68.231,0,0,0,22.009-.054c6.923-1.314,13.687-4.557,18.348-9.943,2.012-2.326-1.368-5.735-3.394-3.394-7.815,9.03-20.618,10.153-31.782,9.188q-2.321-.2-4.626-.527a21.656,21.656,0,0,1-4.472-.832c-.854-.32-1.266-.514-1.379-1.415a30.716,30.716,0,0,1-.048-4.806,52.405,52.405,0,0,1,3.7-17.383A45.672,45.672,0,0,1,52.99,306c1.543-2.305,3.535-4.494,6.263-5.319,2.949-.892,1.693-5.526-1.276-4.629Z"/><path class="e" d="M129.79,207.919a60.122,60.122,0,0,0,14.264,1.835,34.277,34.277,0,0,0,11.745-1.679,51.455,51.455,0,0,0,9.593-4.348c2.705-1.595,5.565-3.574,7.163-6.354,1.542-2.683-2.6-5.1-4.145-2.423a9.088,9.088,0,0,1-2.217,2.443,24.661,24.661,0,0,1-3.519,2.362,45.408,45.408,0,0,1-8.433,3.786,30.281,30.281,0,0,1-10.422,1.407,54.65,54.65,0,0,1-12.753-1.658c-2.985-.809-4.259,3.82-1.276,4.629Z"/><path class="e" d="M142.511,174.262a27.66,27.66,0,0,0-12.718,7.675,2.4,2.4,0,1,0,3.394,3.394,26.969,26.969,0,0,1,2.455-2.289c.1-.081.2-.159.3-.241.276-.23-.451.334.045-.036.2-.152.411-.3.62-.452q.7-.5,1.441-.947a26.49,26.49,0,0,1,2.882-1.509c.42-.19-.231.086.044-.02.119-.046.237-.095.356-.142.268-.1.537-.2.809-.3.544-.189,1.094-.356,1.65-.506a2.4,2.4,0,0,0-1.276-4.629Z"/><path class="e" d="M168.018,194.754c.3,1.522,1.467,2.825,2.388,4.027a43.69,43.69,0,0,0,3.2,3.755,38.307,38.307,0,0,0,7.134,5.817,30.735,30.735,0,0,0,18.186,4.8c6.134-.4,13.493-2.807,16.848-8.371,1.8-2.975,1.417-6.217.743-9.472A45.09,45.09,0,0,0,201,169.91a2.472,2.472,0,0,0-3.394,0,2.418,2.418,0,0,0,0,3.394,40.865,40.865,0,0,1,10.162,12.1,39.252,39.252,0,0,1,3.135,7.378q.581,1.88.981,3.807a11.807,11.807,0,0,1,.431,3.989c-.336,2.206-2.3,3.856-4.1,4.939a20.77,20.77,0,0,1-7.675,2.676,25.312,25.312,0,0,1-15.527-2.906,32.025,32.025,0,0,1-7.044-5.176,39.217,39.217,0,0,1-3.061-3.319c-.741-.9-2.043-2.19-2.263-3.316A2.425,2.425,0,0,0,169.7,191.8a2.451,2.451,0,0,0-1.677,2.953Z"/><path class="e" d="M204.3,216.644a15.26,15.26,0,0,0,2.021,6.57,8.133,8.133,0,0,0,4.494,3.441c4,1.478,8.588,1.045,12.709.451a61.275,61.275,0,0,0,11.945-2.979,36.011,36.011,0,0,0,9.663-5.428c4-3.048,8.8-6.94,10.257-11.982.861-2.972-3.769-4.242-4.629-1.276a11.88,11.88,0,0,1-2.478,3.97,39.668,39.668,0,0,1-4.838,4.56,44.424,44.424,0,0,1-4.809,3.388c-.67.409-1.351.8-2.052,1.152-.252.126-.507.241-.762.359-.38.176.032-.01.094-.036-.175.074-.352.145-.528.215a58.857,58.857,0,0,1-10.058,2.893,34.362,34.362,0,0,1-10.593.746,12.618,12.618,0,0,1-2.645-.661c-.686-.257.218.118-.162-.073-.2-.1-.394-.2-.584-.313q-.232-.138-.453-.292c.393.276-.117-.1-.167-.155-.27-.3-.048-.04,0,.022a4.941,4.941,0,0,1-.386-.665,10.751,10.751,0,0,1-.6-1.432c-.171-.493-.325-.993-.454-1.5-.057-.223-.1-.446-.154-.67-.025-.119-.047-.24-.065-.361q.057.427.032.054c-.11-3.079-4.911-3.094-4.8,0Z"/><path class="e" d="M25.445,247.008a29.49,29.49,0,0,1,4.448-14.1,2.424,2.424,0,0,0-.861-3.283,2.448,2.448,0,0,0-3.284.861,34.757,34.757,0,0,0-5.1,16.519,2.416,2.416,0,0,0,2.4,2.4,2.452,2.452,0,0,0,2.4-2.4Z"/><path class="e" d="M292.878,169.343c.321.21.64.425.953.648.156.111.311.225.465.34.339.251-.419-.343.153.117.6.481,1.18.984,1.736,1.514q.793.755,1.522,1.573.382.431.748.877c.121.148.242.3.36.45-.2-.262.032.049.111.157a26.826,26.826,0,0,1,2.346,3.828q.258.514.494,1.04c.063.14.126.281.185.422-.176-.419.1.264.106.281.277.717.518,1.446.733,2.184a2.4,2.4,0,0,0,4.629-1.276A29.348,29.348,0,0,0,295.3,165.2a2.419,2.419,0,0,0-3.283.861,2.455,2.455,0,0,0,.861,3.284Z"/><path class="e" d="M217.833,128.016c.255-.06.512-.116.77-.163.129-.024.258-.045.388-.065-.314.039-.332.041-.054.008.523-.049,1.044-.088,1.57-.09.458,0,.918.017,1.375.058.13.011.261.025.391.04-.313-.046-.33-.048-.053-.007.259.044.517.087.774.14a14.813,14.813,0,0,1,1.522.4q.281.09.558.19c.1.037.88.37.339.125a15.518,15.518,0,0,1,2.72,1.569,2.408,2.408,0,0,0,3.283-.861,2.465,2.465,0,0,0-.861-3.283,17.349,17.349,0,0,0-14-2.691,2.42,2.42,0,0,0-1.676,2.952,2.452,2.452,0,0,0,2.952,1.677Z"/><path class="e" d="M229.378,125.3c-.177.234.117-.147.172-.216.107-.132.216-.262.325-.391q.371-.436.762-.854.781-.834,1.642-1.591a15.084,15.084,0,0,1,1.507-1.2q.934-.662,1.926-1.235a19.4,19.4,0,0,1,3.7-1.706q1.083-.372,2.2-.639.556-.133,1.119-.24c.166-.031.333-.06.5-.088,0,0,.767-.108.369-.058a2.477,2.477,0,0,0,2.4-2.4,2.414,2.414,0,0,0-2.4-2.4,27.067,27.067,0,0,0-18.364,10.6,2.416,2.416,0,0,0,.861,3.284,2.46,2.46,0,0,0,3.284-.861Z"/><path class="e" d="M145.963,270.544c-3.894-2.3-8.018-4.553-12.564-5.158a14.085,14.085,0,0,0-11.286,3.28c-5.444,4.735-6.791,12.964-6.128,19.786a44.262,44.262,0,0,0,4.29,15.144,2.424,2.424,0,0,0,3.284.861,2.452,2.452,0,0,0,.861-3.284c-2.983-6.137-4.755-13.689-3.384-20.49,1.115-5.535,4.491-10.921,10.788-10.652,4.225.181,8.176,2.565,11.717,4.658,2.665,1.575,5.082-2.572,2.422-4.145Z"/><path class="e" d="M109.784,279.368a26.349,26.349,0,0,0-10.773-4.254,30.708,30.708,0,0,0-7.621-.208c-5.813.444-12.588,1.455-17.532,4.787a8.679,8.679,0,0,0-4.081,5.88,21.048,21.048,0,0,0,.87,8.854,50.745,50.745,0,0,0,9.026,17.83c5.632,7.021,15.462,10.588,24.269,10.416,3.085-.061,3.1-4.861,0-4.8-7.114.139-14.838-2.463-19.788-7.748a31.606,31.606,0,0,1-4.266-6.132,51.18,51.18,0,0,1-3.77-8.188,37.9,37.9,0,0,1-1.242-4.227,14.948,14.948,0,0,1-.48-3.443,13.335,13.335,0,0,1,.044-1.5c.04-.481.015-.1,0,0,.024-.135.045-.271.078-.4.065-.255.137-.5.215-.753.133-.427-.171.253.049-.1.109-.173.21-.35.324-.522.185-.279-.271.3-.035.054.064-.069.121-.146.19-.211.192-.181.378-.365.574-.543.326-.3.081-.074,0-.015.086-.065.174-.129.263-.189.217-.145.432-.292.655-.428a16.7,16.7,0,0,1,1.59-.848,25.461,25.461,0,0,1,3.341-1.218,46.507,46.507,0,0,1,8.011-1.605,36.45,36.45,0,0,1,7.951-.139c-.611-.068.1.02.257.049.209.04.415.088.621.138,1.175.287,2.344.629,3.5,1a18.032,18.032,0,0,1,5.34,2.6,2.417,2.417,0,0,0,3.284-.861,2.457,2.457,0,0,0-.861-3.284Z"/><path class="e" d="M101.133,324.351a28.97,28.97,0,0,0-10.433,19.4,50.382,50.382,0,0,0,.033,9.93,49.073,49.073,0,0,0,1.736,10.1c.888,2.92,2.248,5.993,4.87,7.748,2.571,1.721,5.963,1.571,8.865,1.019,6.8-1.293,13.41-5.229,18.671-9.608a32.767,32.767,0,0,0,11.351-25.457c-.052-3.085-4.852-3.1-4.8,0a28.173,28.173,0,0,1-8.33,20.625,40.421,40.421,0,0,1-15.391,9.1c-.679.214-1.366.405-2.061.562a15.381,15.381,0,0,1-1.74.3,13.744,13.744,0,0,1-1.815.043c-.162-.008-.327-.02-.489-.039.049.006.326.053.047,0a8.874,8.874,0,0,1-1-.242c-.106-.031-.212-.071-.315-.11-.353-.137.3.157-.026-.023a5.982,5.982,0,0,1-.628-.379c.345.246-.154-.156-.254-.255-.14-.141-.506-.567-.484-.538a12.85,12.85,0,0,1-1.473-2.914c-1.893-5.305-2.332-11.281-2.173-16.892a23.659,23.659,0,0,1,9.236-18.981,2.419,2.419,0,0,0,0-3.394,2.452,2.452,0,0,0-3.394,0Z"/><path class="e" d="M235.292,305.558c3.582-1.41,6.462-4.282,8.856-7.221,2.548-3.13,5.059-6.737,6.168-10.67,1.843-6.535.268-14.134-2.539-20.157a19.467,19.467,0,0,0-5.942-7.631,12.263,12.263,0,0,0-8.3-2.046c-7.971.7-15.252,5.682-20.865,11.084-3.68,3.543-6.8,7.426-8.361,12.355a29.441,29.441,0,0,0-.521,15.23c.673,3.014,5.3,1.738,4.629-1.276a24.43,24.43,0,0,1,.1-11.185,21.507,21.507,0,0,1,5.5-9.643c4.7-5.055,10.692-9.776,17.533-11.413a12.423,12.423,0,0,1,3.679-.4,4.75,4.75,0,0,1,1.3.137c.267.056.533.121.794.2.148.044.851.315.491.154a7.024,7.024,0,0,1,2.595,1.887,14.333,14.333,0,0,1,2.207,3.016,27.5,27.5,0,0,1,3.487,16.439c-.427,3.284-2.363,6.492-4.412,9.309a32.692,32.692,0,0,1-4.107,4.64,17.654,17.654,0,0,1-1.794,1.506,12.866,12.866,0,0,1-1.091.7c-.116.066-.233.132-.352.194,0,0-.711.315-.332.166a2.474,2.474,0,0,0-1.676,2.953,2.418,2.418,0,0,0,2.952,1.676Z"/><path class="e" d="M197.835,279.637c-6.23-4.616-14.134-6.586-21.807-6.646-7.441-.058-14.789,1.656-20.656,6.425-2.519,2.047-4.736,4.89-5.26,8.168-.4,2.494.614,4.908,1.664,7.123A41.718,41.718,0,0,0,164.7,310.5a37.583,37.583,0,0,0,11.377,5.26,34.072,34.072,0,0,0,9.729,1.562c3.087-.041,3.095-4.841,0-4.8a33.674,33.674,0,0,1-15.855-4.395c-5.33-2.939-9.424-7.778-12.492-12.964a21.668,21.668,0,0,1-2.647-6.054c-.14-.552-.017.214-.02-.148,0-.151,0-.3,0-.452-.013.464.043-.207.082-.372a6.957,6.957,0,0,1,.31-1,9.851,9.851,0,0,1,2.151-3.037c4.4-4.426,10.716-6.06,16.772-6.279,7.534-.272,15.175,1.423,21.3,5.964a2.417,2.417,0,0,0,3.284-.861,2.456,2.456,0,0,0-.861-3.284Z"/><path class="e" d="M169.671,320.581a30.958,30.958,0,0,0-10.513,21.132,30.334,30.334,0,0,0,1.851,12.684c1.344,3.556,3.2,6.883,6.8,8.543a21.93,21.93,0,0,0,9.921,1.553,42.6,42.6,0,0,0,11.446-1.846,51.53,51.53,0,0,0,17.366-9.414,24.369,24.369,0,0,0,5.209-5.975c2.6-4.1,4.494-8.8,4.3-13.727-.12-3.079-4.921-3.094-4.8,0a18.692,18.692,0,0,1-2.964,10.187c-.477.815-.988,1.609-1.521,2.389-.215.314-.439.621-.655.934.007-.011.335-.377.007-.023-.535.578-1.068,1.145-1.65,1.678a44.411,44.411,0,0,1-13.3,8.166,39.19,39.19,0,0,1-9.648,2.58,30.676,30.676,0,0,1-8.816.031,7.877,7.877,0,0,1-6.069-4.121,25.2,25.2,0,0,1-2.723-10.574,26.208,26.208,0,0,1,9.154-20.8c2.337-2.028-1.07-5.411-3.394-3.394Z"/><path class="e" d="M230.8,305.316a35.848,35.848,0,0,1,8.092,5.36,56.176,56.176,0,0,1,8.331,8.3c3.712,4.707,5.8,10.846,7.044,16.649a26.169,26.169,0,0,1,.614,4.21c.038.64.053,1.282.028,1.923-.012.318-.035.634-.066.95-.008.088-.076.473,0,.034-.03.178-.063.355-.1.532-.059.269-.143.527-.213.793-.138.525.1-.114-.079.229-.114.213-.231.418-.361.623.282-.447-.09.065-.242.222-.224.23.366-.225.087-.067-.1.056-.188.126-.291.174-.072.033-.652.29-.387.18-.71.3-1.441.547-2.175.777a37.693,37.693,0,0,1-18.539.834c-6.779-1.371-13.43-4.6-16.791-10.775-1.477-2.714-5.623-.294-4.145,2.423,7.116,13.073,25.591,15.974,38.853,12.678,2.831-.7,6.224-1.549,7.872-4.171,1.556-2.474,1.551-5.784,1.248-8.587a48.98,48.98,0,0,0-6.7-19.892,46.2,46.2,0,0,0-9.016-10.093c-3.2-2.813-6.711-5.711-10.634-7.453a2.477,2.477,0,0,0-3.284.861,2.418,2.418,0,0,0,.861,3.284Z"/><path class="e" d="M208,312.392c-2.726,0-5.675,2.054-5.675,4.836a5.5,5.5,0,0,0,5.265,5.072c4.685,0,6.085-1.329,6.085-5.381C213.675,313.852,210.52,312.392,208,312.392Z"/><path class="e" d="M271.213,342.994a26.5,26.5,0,0,0,11.253-4.35,2.4,2.4,0,0,0-2.423-4.145,25.184,25.184,0,0,1-2.387,1.448q-.659.35-1.337.658c-.108.049-.844.413-.281.128a6.223,6.223,0,0,1-.607.24,24.968,24.968,0,0,1-5.494,1.393,2.392,2.392,0,0,0-1.435,1.1,2.448,2.448,0,0,0-.241,1.849,2.421,2.421,0,0,0,1.1,1.434,2.828,2.828,0,0,0,1.85.242Z"/><path class="e" d="M190.612,373.838a32.725,32.725,0,0,0,25.5-13.011,2.415,2.415,0,0,0-.861-3.284,2.46,2.46,0,0,0-3.284.861,27.648,27.648,0,0,1-21.354,10.634c-3.086.043-3.095,4.843,0,4.8Z"/><path class="e" d="M41.918,284.215a38.043,38.043,0,0,0,5.733,19.856c1.632,2.615,5.787.208,4.144-2.423a33.239,33.239,0,0,1-5.077-17.433c-.02-3.088-4.82-3.094-4.8,0Z"/><path class="e" d="M340.042,209.713c2.076-3.729,4.177-7.446,6.269-11.167q6.266-11.148,12.534-22.3,7.361-13.095,14.719-26.193,6.416-11.424,12.823-22.856c2.288-4.088,4.662-8.143,6.846-12.288.077-.145.157-.289.233-.434,1.434-2.733-2.707-5.162-4.144-2.423-1.851,3.527-3.864,6.975-5.809,10.45q-6.136,10.969-12.3,21.927-7.349,13.087-14.7,26.171L343.48,193.787q-3.642,6.478-7.28,12.96l-.3.543c-1.5,2.7,2.64,5.125,4.145,2.423Z"/><path class="e" d="M192.749,75.79q17.207-30.9,34.507-61.756,2.719-4.856,5.441-9.711c1.512-2.7-2.632-5.12-4.144-2.422q-14.709,26.241-29.377,52.505-5.29,9.479-10.572,18.962c-1.5,2.7,2.641,5.124,4.145,2.422Z"/><path class="e" d="M175.673,106.026c2.6-4.444,5.115-8.936,7.659-13.41q.656-1.152,1.308-2.3a2.4,2.4,0,0,0-4.145-2.423c-2.5,4.439-5.034,8.856-7.564,13.275-.466.814-.929,1.63-1.4,2.44a2.4,2.4,0,1,0,4.145,2.423Z"/><path class="e" d="M332.423,149.317q7.926-14.06,15.827-28.132,9.957-17.72,19.889-35.453,3.711-6.633,7.4-13.277c1.5-2.7-2.647-5.129-4.144-2.423-5.173,9.351-10.415,18.664-15.643,27.984Q345.8,115.77,335.813,133.51q-3.765,6.693-7.534,13.384c-1.519,2.694,2.626,5.116,4.144,2.423Z"/><path class="e" d="M314.244,27.419c3.088,0,3.094-4.8,0-4.8s-3.094,4.8,0,4.8Z"/><path class="e" d="M271.34,29.05l8.76-15.325,1.517-2.653c1.535-2.686-2.61-5.107-4.145-2.423L269.034,23.41,267.2,26.627c-1.536,2.686,2.61,5.107,4.145,2.423Z"/><path class="e" d="M240.3,83.355l20.979-36.7,3.64-6.367c1.536-2.686-2.61-5.107-4.144-2.423L239.9,74.38l-3.746,6.553c-1.535,2.686,2.61,5.106,4.145,2.422Z"/><path class="e" d="M135.055,79.145c5.01-8.765,9.955-17.567,14.909-26.363q9.549-16.95,19.08-33.91,4.3-7.639,8.6-15.275c1.52-2.694-2.625-5.116-4.144-2.422q-8.379,14.859-16.731,29.732Q147.493,47.4,138.2,63.875q-3.633,6.431-7.287,12.848c-1.536,2.686,2.61,5.107,4.144,2.422Z"/><path class="e" d="M385.924,199.167,396.2,181.189c1.535-2.686-2.61-5.107-4.145-2.423L381.78,196.745c-1.536,2.686,2.61,5.107,4.144,2.422Z"/><path class="e" d="M354.881,253.473l25.543-44.684c1.536-2.686-2.61-5.107-4.145-2.423L350.736,251.05c-1.535,2.686,2.61,5.107,4.145,2.423Z"/><path class="e" d="M292.691,70.4c5.721-11.854,12.184-23.33,17.97-35.149a2.462,2.462,0,0,0-.861-3.284,2.423,2.423,0,0,0-3.284.861c-5.786,11.82-12.249,23.3-17.969,35.15a2.463,2.463,0,0,0,.861,3.283,2.42,2.42,0,0,0,3.283-.861Z"/><path class="e" d="M314.6,110.886q15.15-27.205,30.232-54.449,4.151-7.474,8.3-14.948c1.5-2.7-2.642-5.126-4.145-2.422Q332.9,68,316.85,96.961q-3.195,5.753-6.394,11.5c-1.5,2.7,2.64,5.125,4.145,2.423Z"/><path class="e" d="M280.158,125.205a3.149,3.149,0,0,1,.409.266l-.405-.313a2.978,2.978,0,0,1,.509.507l-.313-.4a2.546,2.546,0,0,1,.317.537l-.2-.477a2.186,2.186,0,0,1,.15.544l-.071-.531.006.057a2.222,2.222,0,0,0,.586,1.414,1.492,1.492,0,0,0,.644.413,1.511,1.511,0,0,0,.77.173l.532-.072a1.99,1.99,0,0,0,.882-.514l.313-.405a1.987,1.987,0,0,0,.273-1.009,4.094,4.094,0,0,0-.223-1.121,4.414,4.414,0,0,0-.506-1.006,5.092,5.092,0,0,0-.727-.843,5.563,5.563,0,0,0-.927-.67,1.486,1.486,0,0,0-.743-.237,2.05,2.05,0,0,0-1.993.955l-.2.477a2.022,2.022,0,0,0,0,1.064l.2.477a2.008,2.008,0,0,0,.718.718Z"/><path class="e" d="M285.006,137.154l.041-.007-.531.071a1.192,1.192,0,0,1,.28,0l-.531-.072a1.345,1.345,0,0,1,.3.084l-.478-.2a1.889,1.889,0,0,1,.388.234l-.4-.313a4.17,4.17,0,0,1,.685.726l-.312-.405a3.547,3.547,0,0,1,.434.671l-.2-.478a1.361,1.361,0,0,1,.1.336l-.071-.532a1.169,1.169,0,0,1,0,.271l.072-.531a1.036,1.036,0,0,1-.063.219l.2-.478a.893.893,0,0,1-.1.16l.312-.405a.8.8,0,0,1-.107.1l.4-.312a.625.625,0,0,1-.087.052l.478-.2a.62.62,0,0,1-.153.042l.532-.072a.7.7,0,0,1-.129,0l.532.072a.749.749,0,0,1-.155-.039l.478.2a.618.618,0,0,1-.134-.078l.405.313a.561.561,0,0,1-.064-.065l.312.405a.6.6,0,0,1-.047-.076l.2.478a.5.5,0,0,1-.032-.119,1.928,1.928,0,0,0-1.663-1.433,1.522,1.522,0,0,0-.8.036,2.03,2.03,0,0,0-1.2.919l-.2.478a2.018,2.018,0,0,0,0,1.063.62.62,0,0,0,.026.105,2.657,2.657,0,0,0,.238.544,2.56,2.56,0,0,0,.836.833.9.9,0,0,0,.1.051,3.648,3.648,0,0,0,.538.222,2.741,2.741,0,0,0,.36.055,2.18,2.18,0,0,0,.379.037,2.136,2.136,0,0,0,.939-.216,2.371,2.371,0,0,0,.814-.542,3.242,3.242,0,0,0,.371-.477.985.985,0,0,0,.063-.115,2.825,2.825,0,0,0,.265-.7,3.039,3.039,0,0,0-.051-1.561,3.932,3.932,0,0,0-.51-1.033,6.849,6.849,0,0,0-1.117-1.315,5.76,5.76,0,0,0-.644-.484,4.192,4.192,0,0,0-.732-.326,3.176,3.176,0,0,0-.8-.135,3.242,3.242,0,0,0-.834.084,2.238,2.238,0,0,0-1.195.919,1.484,1.484,0,0,0-.238.744,1.522,1.522,0,0,0,.036.8,2.026,2.026,0,0,0,.919,1.2l.478.2a2.018,2.018,0,0,0,1.063,0Z"/><path class="e" d="M286.126,149.4l.041-.007-.532.071a1.2,1.2,0,0,1,.281,0l-.532-.071a1.282,1.282,0,0,1,.3.084l-.477-.2a1.846,1.846,0,0,1,.388.234l-.4-.313a4.14,4.14,0,0,1,.686.726l-.313-.405a3.516,3.516,0,0,1,.434.671l-.2-.478a1.405,1.405,0,0,1,.1.336l-.072-.532a1.117,1.117,0,0,1,0,.271l.071-.532a.988.988,0,0,1-.063.22l.2-.478a.855.855,0,0,1-.1.159l.313-.4a.877.877,0,0,1-.108.1l.405-.313a.777.777,0,0,1-.087.053l.478-.2a.6.6,0,0,1-.154.043l.532-.072a.684.684,0,0,1-.128,0l.531.072a.818.818,0,0,1-.155-.039l.478.2a.642.642,0,0,1-.134-.078l.4.312a.553.553,0,0,1-.064-.064l.313.405a.51.51,0,0,1-.048-.076l.2.477a.441.441,0,0,1-.033-.118,1.491,1.491,0,0,0-.358-.68,1.514,1.514,0,0,0-.561-.516,1.486,1.486,0,0,0-.743-.237,1.526,1.526,0,0,0-.8.036,2.017,2.017,0,0,0-1.195.919l-.2.478a2.018,2.018,0,0,0,0,1.063.54.54,0,0,0,.027.1,2.653,2.653,0,0,0,.237.544,2.553,2.553,0,0,0,.837.833.882.882,0,0,0,.1.051,3.648,3.648,0,0,0,.538.222,2.589,2.589,0,0,0,.361.054,2.076,2.076,0,0,0,1.318-.178,2.381,2.381,0,0,0,.814-.542,3.314,3.314,0,0,0,.37-.478,1.15,1.15,0,0,0,.064-.114,2.878,2.878,0,0,0,.264-.7,3.028,3.028,0,0,0-.051-1.561,3.922,3.922,0,0,0-.51-1.034,6.874,6.874,0,0,0-1.116-1.314,5.652,5.652,0,0,0-.645-.484,4.192,4.192,0,0,0-.732-.326,3.162,3.162,0,0,0-.8-.136,3.292,3.292,0,0,0-.834.085,2.238,2.238,0,0,0-1.195.919,1.486,1.486,0,0,0-.237.744,1.512,1.512,0,0,0,.035.8,2.025,2.025,0,0,0,.919,1.2l.478.2a2.022,2.022,0,0,0,1.064,0Z"/><path class="e" d="M275.532,118.869c2.574,0,2.578-4,0-4s-2.578,4,0,4Z"/><path class="e" d="M123.259,22.83l8.187-14.322A2.4,2.4,0,0,0,127.3,6.086l-8.187,14.321a2.4,2.4,0,1,0,4.145,2.423Z"/><path class="e" d="M94.674,72.833q10.645-18.621,21.29-37.242c1.536-2.686-2.61-5.107-4.144-2.423Q101.175,51.789,90.53,70.411c-1.536,2.686,2.61,5.107,4.144,2.422Z"/><path class="e" d="M337.577,315.932a16.452,16.452,0,0,1,7.617-1.783c2.358-.057,5.231-.169,7.337.85a3.307,3.307,0,0,1,1.212.884c-.224-.263.215.335.219.342.329.556-.034-.251.174.356a3.408,3.408,0,0,1,.181.732c-.055-.544-.082.6-.029.26-.051.329-.115.278-.325.53.184-.221-.34.144,0,.026-.063.022-.719.18-.319.123-.149.021-.76.012-.706.017.031,0-.576-.116-.741-.16a11.148,11.148,0,0,1-3-1.4c-2.643-1.615-5.057,2.535-2.423,4.145,2.307,1.41,5.122,2.643,7.878,2.063a5.661,5.661,0,0,0,4.371-6.313c-.845-6.671-8.461-7.386-13.828-7.253a21.7,21.7,0,0,0-10.039,2.438c-2.707,1.49-.288,5.637,2.422,4.145Z"/><path class="e" d="M24.256,299.916a19.1,19.1,0,0,0-19.344,1.718c-2.69,2.025-5.1,5.086-4.9,8.647.2,3.5,2.548,6.655,6.181,7,4.291.412,7.691-3.382,10.592-5.977a2.4,2.4,0,1,0-3.394-3.4,50.81,50.81,0,0,1-3.84,3.35c-1.072.781-2.295,1.567-3.616,1.085.13.047-.2-.161-.275-.233-.02-.018-.419-.5-.3-.338a3.94,3.94,0,0,1-.537-1.36,4.375,4.375,0,0,1,1.084-3.2c3.553-4.557,10.911-5.5,15.929-3.157a2.47,2.47,0,0,0,3.284-.861,2.42,2.42,0,0,0-.861-3.284Z"/></svg>